{
    "asset" : {
        "generator" : "Khronos glTF Blender I/O v1.4.40",
        "version" : "2.0"
    },
    "scene" : 0,
    "scenes" : [
        {
            "name" : "Scene",
            "nodes" : [
                0,
                1
            ]
        }
    ],
    "nodes" : [
        {
            "name" : "Camera.002",
            "rotation" : [
                0,
                0.7071068286895752,
                0,
                0.7071068286895752
            ],
            "translation" : [
                0,
                16.5878963470459,
                0
            ]
        },
        {
            "mesh" : 0,
            "name" : "Ground_Scene_4.001",
            "scale" : [
                0.46105483174324036,
                1,
                0.46105483174324036
            ],
            "translation" : [
                -0.0727950930595398,
                0,
                0
            ]
        }
    ],
    "materials" : [
        {
            "doubleSided" : true,
            "name" : "Material",
            "pbrMetallicRoughness" : {
                "baseColorFactor" : [
                    0.800000011920929,
                    0.800000011920929,
                    0.800000011920929,
                    1
                ],
                "metallicFactor" : 0,
                "roughnessFactor" : 0.5
            }
        }
    ],
    "meshes" : [
        {
            "name" : "Circle.009",
            "primitives" : [
                {
                    "attributes" : {
                        "POSITION" : 0,
                        "NORMAL" : 1,
                        "TEXCOORD_0" : 2,
                        "TEXCOORD_1" : 3,
                        "TEXCOORD_2" : 4,
                        "TEXCOORD_3" : 5,
                        "TEXCOORD_4" : 6,
                        "TEXCOORD_5" : 7
                    },
                    "indices" : 8,
                    "material" : 0
                }
            ]
        }
    ],
    "accessors" : [
        {
            "bufferView" : 0,
            "componentType" : 5126,
            "count" : 34560,
            "max" : [
                12.816251754760742,
                5.2221150398254395,
                13.035820007324219
            ],
            "min" : [
                -11.867341995239258,
                -1.142964482307434,
                -13.790924072265625
            ],
            "type" : "VEC3"
        },
        {
            "bufferView" : 1,
            "componentType" : 5126,
            "count" : 34560,
            "type" : "VEC3"
        },
        {
            "bufferView" : 2,
            "componentType" : 5126,
            "count" : 34560,
            "type" : "VEC2"
        },
        {
            "bufferView" : 3,
            "componentType" : 5126,
            "count" : 34560,
            "type" : "VEC2"
        },
        {
            "bufferView" : 4,
            "componentType" : 5126,
            "count" : 34560,
            "type" : "VEC2"
        },
        {
            "bufferView" : 5,
            "componentType" : 5126,
            "count" : 34560,
            "type" : "VEC2"
        },
        {
            "bufferView" : 6,
            "componentType" : 5126,
            "count" : 34560,
            "type" : "VEC2"
        },
        {
            "bufferView" : 7,
            "componentType" : 5126,
            "count" : 34560,
            "type" : "VEC2"
        },
        {
            "bufferView" : 8,
            "componentType" : 5123,
            "count" : 96474,
            "type" : "SCALAR"
        }
    ],
    "bufferViews" : [
        {
            "buffer" : 0,
            "byteLength" : 414720,
            "byteOffset" : 0
        },
        {
            "buffer" : 0,
            "byteLength" : 414720,
            "byteOffset" : 414720
        },
        {
            "buffer" : 0,
            "byteLength" : 276480,
            "byteOffset" : 829440
        },
        {
            "buffer" : 0,
            "byteLength" : 276480,
            "byteOffset" : 1105920
        },
        {
            "buffer" : 0,
            "byteLength" : 276480,
            "byteOffset" : 1382400
        },
        {
            "buffer" : 0,
            "byteLength" : 276480,
            "byteOffset" : 1658880
        },
        {
            "buffer" : 0,
            "byteLength" : 276480,
            "byteOffset" : 1935360
        },
        {
            "buffer" : 0,
            "byteLength" : 276480,
            "byteOffset" : 2211840
        },
        {
            "buffer" : 0,
            "byteLength" : 192948,
            "byteOffset" : 2488320
        }
    ],
    "buffers" : [
        {
            "byteLength" : 2681268,
            "uri" : "data:application/octet-stream;base64,"
        }
    ]
}
