{
    "asset" : {
        "generator" : "Khronos glTF Blender I/O v0.9.4",
        "version" : "2.0"
    },
    "scene" : 0,
    "scenes" : [
        {
            "name" : "Scene",
            "nodes" : [
                1,
                2
            ]
        }
    ],
    "nodes" : [
        {
            "mesh" : 0,
            "name" : "morph.001",
            "scale" : [
                0.012577111832797527,
                0.0531310960650444,
                0.012577111832797527
            ],
            "translation" : [
                -0.04672436788678169,
                0.17443430423736572,
                0.8375468254089355
            ]
        },
        {
            "children" : [
                0
            ],
            "mesh" : 1,
            "name" : "morph",
            "scale" : [
                0.012577111832797527,
                0.0531310960650444,
                0.012577111832797527
            ],
            "translation" : [
                -0.04672436788678169,
                0.17443430423736572,
                0.8375468254089355
            ]
        },
        {
            "mesh" : 2,
            "name" : "Plane",
            "scale" : [
                0.9196443557739258,
                0.9196443557739258,
                0.9196443557739258
            ],
            "translation" : [
                -0.003038751892745495,
                0.17095765471458435,
                0
            ]
        }
    ],
    "meshes" : [
        {
            "name" : "Cube.006",
            "primitives" : [
                {
                    "attributes" : {
                        "POSITION" : 0,
                        "NORMAL" : 1,
                        "TEXCOORD_0" : 2
                    },
                    "indices" : 3
                }
            ]
        },
        {
            "name" : "Cube.003",
            "primitives" : [
                {
                    "attributes" : {
                        "POSITION" : 4,
                        "NORMAL" : 5,
                        "TEXCOORD_0" : 6
                    },
                    "indices" : 3
                }
            ]
        },
        {
            "name" : "Plane.002",
            "primitives" : [
                {
                    "attributes" : {
                        "POSITION" : 7,
                        "NORMAL" : 8,
                        "TEXCOORD_0" : 9
                    },
                    "indices" : 10
                }
            ]
        }
    ],
    "accessors" : [
        {
            "bufferView" : 0,
            "componentType" : 5126,
            "count" : 480,
            "max" : [
                77.23273468017578,
                1.074682354927063,
                1.5634167194366455
            ],
            "min" : [
                -70.22228240966797,
                -1.0229198932647705,
                -134.57852172851562
            ],
            "type" : "VEC3"
        },
        {
            "bufferView" : 1,
            "componentType" : 5126,
            "count" : 480,
            "type" : "VEC3"
        },
        {
            "bufferView" : 2,
            "componentType" : 5126,
            "count" : 480,
            "type" : "VEC2"
        },
        {
            "bufferView" : 3,
            "componentType" : 5123,
            "count" : 720,
            "type" : "SCALAR"
        },
        {
            "bufferView" : 4,
            "componentType" : 5126,
            "count" : 480,
            "max" : [
                77.23273468017578,
                0.46405652165412903,
                4.3946003913879395
            ],
            "min" : [
                -70.22228240966797,
                -0.44385838508605957,
                -137.50167846679688
            ],
            "type" : "VEC3"
        },
        {
            "bufferView" : 5,
            "componentType" : 5126,
            "count" : 480,
            "type" : "VEC3"
        },
        {
            "bufferView" : 6,
            "componentType" : 5126,
            "count" : 480,
            "type" : "VEC2"
        },
        {
            "bufferView" : 7,
            "componentType" : 5126,
            "count" : 64,
            "max" : [
                1.6192905902862549,
                0.07769255340099335,
                1.535727858543396
            ],
            "min" : [
                -1.6192905902862549,
                -0.1693001240491867,
                -1.542336344718933
            ],
            "type" : "VEC3"
        },
        {
            "bufferView" : 8,
            "componentType" : 5126,
            "count" : 64,
            "type" : "VEC3"
        },
        {
            "bufferView" : 9,
            "componentType" : 5126,
            "count" : 64,
            "type" : "VEC2"
        },
        {
            "bufferView" : 10,
            "componentType" : 5123,
            "count" : 96,
            "type" : "SCALAR"
        }
    ],
    "bufferViews" : [
        {
            "buffer" : 0,
            "byteLength" : 5760,
            "byteOffset" : 0
        },
        {
            "buffer" : 0,
            "byteLength" : 5760,
            "byteOffset" : 5760
        },
        {
            "buffer" : 0,
            "byteLength" : 3840,
            "byteOffset" : 11520
        },
        {
            "buffer" : 0,
            "byteLength" : 1440,
            "byteOffset" : 15360
        },
        {
            "buffer" : 0,
            "byteLength" : 5760,
            "byteOffset" : 16800
        },
        {
            "buffer" : 0,
            "byteLength" : 5760,
            "byteOffset" : 22560
        },
        {
            "buffer" : 0,
            "byteLength" : 3840,
            "byteOffset" : 28320
        },
        {
            "buffer" : 0,
            "byteLength" : 768,
            "byteOffset" : 32160
        },
        {
            "buffer" : 0,
            "byteLength" : 768,
            "byteOffset" : 32928
        },
        {
            "buffer" : 0,
            "byteLength" : 512,
            "byteOffset" : 33696
        },
        {
            "buffer" : 0,
            "byteLength" : 192,
            "byteOffset" : 34208
        }
    ],
    "buffers" : [
        {
            "byteLength" : 34400,
            "uri" : "place3.bin"
        }
    ]
}
